<?xml version="1.0" encoding="iso-8859-1"?>
<!-- Generator: Adobe Illustrator 19.0.0, SVG Export Plug-In . SVG Version: 6.00 Build 0)  -->
<svg version="1.1" id="Capa_1" xmlns="http://www.w3.org/2000/svg" xmlns:xlink="http://www.w3.org/1999/xlink" x="0px" y="0px"
	 viewBox="0 0 512 512" style="enable-background:new 0 0 512 512;" xml:space="preserve">
<rect x="114.329" y="131.43" style="fill:#FFE0B2;" width="283.331" height="82.672"/>
<polygon style="fill:#4D342E;" points="69.985,148.289 139.985,64.666 372.015,64.666 442.015,148.289 "/>
<polygon style="opacity:0.1;enable-background:new    ;" points="139.985,64.666 69.985,148.289 142.098,148.289 212.098,64.666 "/>
<g>
	<path style="fill:#6D4C41;" d="M338.96,86.883H173.04c-31.994,0-63.266-13.029-85.798-35.744
		c-6.806-6.862-6.761-17.943,0.101-24.748c6.862-6.806,17.943-6.76,24.748,0.101c16.005,16.137,38.22,25.392,60.948,25.392H338.96
		c22.728,0,44.942-9.255,60.948-25.392c6.806-6.863,17.888-6.906,24.749-0.101c6.861,6.806,6.907,17.887,0.101,24.748
		C402.227,73.854,370.955,86.883,338.96,86.883z"/>
	<rect x="140.496" y="438.321" style="fill:#6D4C41;" width="29.999" height="52.361"/>
	<rect x="341.505" y="438.321" style="fill:#6D4C41;" width="29.999" height="52.361"/>
</g>
<rect x="263.273" y="284.422" style="fill:#FFE0B2;" width="186.463" height="144.905"/>
<path style="fill:#4D342E;" d="M442.015,371.299h-49.279v-28.845h49.279c4.267,0,7.726-3.459,7.726-7.726s-3.459-7.726-7.726-7.726
	h-49.279V290.43c0-4.267-3.459-7.726-7.726-7.726c-4.267,0-7.726,3.459-7.726,7.726v36.571h-41.552V290.43
	c0-4.267-3.459-7.726-7.726-7.726s-7.726,3.459-7.726,7.726v36.571H271c-4.267,0-7.726,3.459-7.726,7.726s3.459,7.726,7.726,7.726
	h49.278v28.845H271c-4.267,0-7.726,3.459-7.726,7.726s3.459,7.726,7.726,7.726h49.278v36.571c0,4.267,3.459,7.726,7.726,7.726
	s7.726-3.459,7.726-7.726v-36.571h41.552v36.571c0,4.267,3.459,7.726,7.726,7.726c4.267,0,7.726-3.459,7.726-7.726v-36.571h49.279
	c4.267,0,7.726-3.459,7.726-7.726S446.282,371.299,442.015,371.299z M335.731,371.299v-28.845h41.552v28.845H335.731z"/>
<rect x="241.001" y="259.935" style="fill:#6D4C41;" width="29.999" height="230.75"/>
<rect x="241.001" y="290.428" style="opacity:0.1;enable-background:new    ;" width="29.999" height="25.755"/>
<rect x="54.981" y="423.321" style="fill:#4D342E;" width="402.028" height="29.999"/>
<g>
	<rect x="39.985" y="259.935" style="fill:#6D4C41;" width="29.999" height="230.75"/>
	<rect x="442.009" y="259.935" style="fill:#6D4C41;" width="29.999" height="230.75"/>
</g>
<rect x="270.999" y="290.428" style="opacity:0.1;enable-background:new    ;" width="171.01" height="25.755"/>
<polygon style="fill:#6D4C41;" points="256,113.729 40,229.448 40,259.94 472,259.94 472,229.448 "/>
<rect x="39.985" y="290.428" style="opacity:0.1;enable-background:new    ;" width="29.999" height="25.755"/>
<rect x="442.009" y="290.428" style="opacity:0.1;enable-background:new    ;" width="29.999" height="25.755"/>
<polygon style="opacity:0.1;enable-background:new    ;" points="40,259.94 83.025,259.94 155.492,229.448 256,113.729 40,229.448 
	"/>
<polygon style="fill:#4D342E;" points="512,290.43 0,290.43 40,229.448 472,229.448 "/>
<polygon style="opacity:0.1;enable-background:new    ;" points="0,290.43 130.26,290.43 155.492,229.448 40,229.448 "/>
<g>
</g>
<g>
</g>
<g>
</g>
<g>
</g>
<g>
</g>
<g>
</g>
<g>
</g>
<g>
</g>
<g>
</g>
<g>
</g>
<g>
</g>
<g>
</g>
<g>
</g>
<g>
</g>
<g>
</g>
</svg>
