<svg id="Expand_Filled" height="512" viewBox="0 0 512 512" width="512" xmlns="http://www.w3.org/2000/svg" data-name="Expand Filled"><g id="_1_copy_2" data-name="1 copy 2"><g><path d="m64 361.441c0 10.97 15.306 20.461 18.319 30.724 2.115 7.2-1.086 15.831-1.483 23.622h350.564c-.4-7.791-3.6-16.418-1.483-23.622 3.012-10.264 18.318-19.754 18.318-30.724s-15.306-20.46-18.318-30.724c-3.112-10.6 5.287-24.278-.67-33.839-6.055-9.719-25.165-13.137-33.774-21.486-8.65-8.389-8.732-23.566-19.566-30.265-10.781-6.666-29.895-3.375-42.447-8.063-12.347-4.613-20.9-18.283-34.587-20.692-13.255-2.332-28.589 7.056-42.755 7.056s-29.5-9.388-42.756-7.055c-13.686 2.408-22.239 16.078-34.587 20.69-12.551 4.689-31.665 1.4-42.446 8.064-10.834 6.7-10.916 21.876-19.567 30.265-8.608 8.348-27.718 11.766-33.774 21.485-5.957 9.562 2.442 23.242-.669 33.84-3.013 10.264-18.319 19.754-18.319 30.724z" fill="#fcbf58"/><g><path d="m136 360a48 48 0 0 1 -96 0c0-26.51 21.49-80 48-80s48 53.49 48 80z" fill="#fce9ca"/><path d="m108.571 355.429a20.571 20.571 0 0 1 -41.142 0c0-11.362 9.21-34.286 20.571-34.286s20.571 22.924 20.571 34.286z" fill="#fcbf58"/></g><g><path d="m449.79 378.953c-16.689 28.063-50.585 28.063-67.273 0-29.2-49.11-29.2-64.015 0-113.125 16.688-28.063 39.594-18.365 67.273 0 50.031 33.197 29.21 64.015 0 113.125z" fill="#cc7147"/><path d="m441.794 361.6a110.936 110.936 0 0 1 12.611 9.612c4.931-8.275 9.5-16.023 13.372-23.354-4.47-8.842-12.734-17.467-25.983-26.258-27.679-18.365-50.585-28.062-67.273 0-4.214 7.086-7.808 13.451-10.8 19.319a136.349 136.349 0 0 0 9.857 22.283c.315-.532.625-1.061.947-1.6 16.684-28.068 39.59-18.371 67.269-.002z" fill="#d68c6b"/><path d="m408 272h16v16h-16z"/></g><path d="m488 71.938h-368v21.281l368 10.656z" fill="#d68c6b"/><path d="m208 328c0-30.4 12-30.4 12-60.805s-12-30.4-12-60.805 12-30.4 12-60.8-12-30.4-12-60.8c0-23.866 7.4-28.994 10.576-44.806a19.966 19.966 0 0 1 19.59-15.984h64.419a20.006 20.006 0 0 1 18.7 27.1c-3.361 8.871-7.285 16.314-7.285 33.7 0 30.4 12 30.4 12 60.8s-12 30.4-12 60.8 12 30.4 12 60.805-12 30.395-12 60.795z" fill="#fdce7f"/><path d="m488 40-368 10.656v21.282h368z" fill="#cc7147"/><path d="m255.133 280a86.244 86.244 0 0 0 .867-12.8c0-30.4-12-30.4-12-60.805s12-30.4 12-60.8-12-30.4-12-60.8 12-30.395 12-60.795h36c0 30.4-12 30.4-12 60.8s12 30.4 12 60.8-12 30.4-12 60.8 12 30.4 12 60.805c0 19.365-4.869 26.4-8.4 36.805z" fill="#fcbf58"/><path d="m291.171 306.573-15.15-5.146c.823-2.422 1.694-4.63 2.538-6.766 2.92-7.4 5.441-13.786 5.441-27.466s-2.521-20.068-5.441-27.466a91.2 91.2 0 0 1 -4.585-13.943l15.6-3.572a77.336 77.336 0 0 0 3.871 11.641c3.075 7.789 6.559 16.617 6.559 33.34s-3.484 25.552-6.559 33.34c-.812 2.048-1.576 3.984-2.274 6.038z"/><path d="m264 145.594h-16c0 13.677-2.521 20.065-5.441 27.461-3.075 7.787-6.559 16.614-6.559 33.335s3.484 25.551 6.559 33.34c2.92 7.4 5.441 13.786 5.441 27.465a78.263 78.263 0 0 1 -.779 11.621l15.824 2.368a94.08 94.08 0 0 0 .955-13.984c0-16.722-3.484-25.55-6.559-33.339-2.92-7.4-5.441-13.786-5.441-27.466s2.521-20.064 5.441-27.46c3.075-7.793 6.559-16.62 6.559-33.341z"/><path d="m240 310c0 9.467-8.3 16.348-16.471 22.207-7.08 5.079-15.271 11.793-25.529 11.793s-18.449-6.714-25.529-11.793c-8.171-5.859-16.471-12.741-16.471-22.207s8.3-16.348 16.471-22.207c7.08-5.079 15.271-11.793 25.529-11.793s18.449 6.714 25.529 11.793c8.171 5.859 16.471 12.741 16.471 22.207z" fill="#cc7147"/><ellipse cx="306.366" cy="345.628" fill="#cc7147" rx="40" ry="22.422" transform="matrix(.786 -.618 .618 .786 -148.13 263.457)"/><path d="m232 344h16v16h-16z"/><path d="m144 256h16v16h-16z"/><g><path d="m160 456h192a0 0 0 0 1 0 0v22a10 10 0 0 1 -10 10h-172a10 10 0 0 1 -10-10v-22a0 0 0 0 1 0 0z" fill="#cc4732"/><path d="m367.017 456h-222.034a59.993 59.993 0 0 1 -31.446-8.9l-80.019-49.243a20 20 0 0 1 -9.518-17.033v-4.824h464v4.824a20 20 0 0 1 -9.518 17.033l-80.019 49.243a59.993 59.993 0 0 1 -31.446 8.9z" fill="#ff593f"/><path d="m464 408h-424l-16-16v-16h464v16z" fill="#cc4732"/></g></g><path d="m488 111.875a8 8 0 0 0 8-8v-63.813a8 8 0 0 0 -8.231-8l-48 1.39.462 15.993 39.769-1.145v15.638h-168v.062h-21.04c.751-2.282 1.6-4.427 2.481-6.665.471-1.193.952-2.41 1.428-3.677l129.362-3.746-.462-15.993-94.158 2.727a28.147 28.147 0 0 0 -27.026-20.646h-64.418a28.037 28.037 0 0 0 -27.435 22.413q-.169.846-.367 1.686l-90.6 2.623a8 8 0 0 0 -7.769 8v42.5a8 8 0 0 0 7.769 8l82.078 2.376a89.66 89.66 0 0 0 4.712 14.54c2.92 7.4 5.441 13.784 5.441 27.462s-2.521 20.065-5.441 27.461c-3.071 7.781-6.555 16.608-6.555 33.329s3.484 25.551 6.559 33.34c2.92 7.4 5.441 13.786 5.441 27.465 0 1.333-.024 2.616-.073 3.857a34.388 34.388 0 0 0 -13.927-3.052c-11.924 0-20.986 6.6-28.268 11.9-.65.474-1.292.941-1.924 1.394-6.923 4.965-19.808 14.206-19.808 28.706s12.885 23.741 19.808 28.707c.632.453 1.274.92 1.924 1.394 7.282 5.299 16.344 11.899 28.268 11.899s20.986-6.6 28.268-11.9c.65-.474 1.292-.941 1.924-1.394 6.923-4.965 19.808-14.206 19.808-28.706s-12.885-23.741-19.808-28.707c-.348-.249-.7-.5-1.053-.76a95.064 95.064 0 0 0 .861-13.333c0-16.722-3.484-25.55-6.559-33.339-2.92-7.4-5.441-13.786-5.441-27.466s2.521-20.064 5.441-27.46c3.075-7.788 6.559-16.615 6.559-33.336s-3.484-25.549-6.559-33.337c-2.92-7.401-5.441-13.789-5.441-27.462 0-1.671.038-3.265.116-4.8h19.984q-.1 2.286-.1 4.8c0 16.722 3.484 25.549 6.559 33.337a77.3 77.3 0 0 1 3.874 11.652l15.6-3.568a91.234 91.234 0 0 0 -4.588-13.959c-2.924-7.401-5.445-13.788-5.445-27.462s2.521-20.064 5.441-27.46c2.543-6.44 5.366-13.594 6.267-25.335h19.954c-.782 8.513-2.821 13.679-5.1 19.46-3.078 7.783-6.562 16.61-6.562 33.335s3.484 25.549 6.559 33.337c2.92 7.4 5.441 13.784 5.441 27.462s-2.521 20.065-5.441 27.461c-3.075 7.782-6.559 16.609-6.559 33.33q0 .881.013 1.729l16-.238c-.008-.487-.011-.985-.011-1.491 0-13.677 2.521-20.064 5.441-27.46 3.075-7.788 6.559-16.615 6.559-33.336s-3.484-25.549-6.559-33.337c-2.922-7.396-5.443-13.784-5.443-27.457 0-1.706.039-3.3.114-4.8h17.9c.268 15.424 3.593 23.847 6.541 31.315 2.92 7.4 5.441 13.784 5.441 27.462s-2.521 20.065-5.441 27.461c-3.075 7.787-6.559 16.615-6.559 33.335s3.484 25.552 6.559 33.34c2.92 7.4 5.441 13.786 5.441 27.465s-2.521 20.068-5.441 27.466c-2.366 5.992-4.974 12.6-6.051 22.946a73.915 73.915 0 0 0 -18.955 10.929c-17.7 13.925-26.4 32.675-22.6 46.281h-121.519a56.291 56.291 0 0 0 .57-8c0-15.121-5.873-36.174-14.963-53.635a94.138 94.138 0 0 0 -13.612-20.065 37.848 37.848 0 0 0 6.907-5.166c5-4.848 7.622-11.016 9.936-16.458 2.362-5.557 4.4-10.356 8.269-12.746 4.32-2.672 12.038-3.241 19.5-3.791 7.317-.539 14.885-1.1 21.538-3.582 6-2.243 10.907-5.949 15.418-9.553l-9.988-12.5c-3.5 2.8-7.236 5.647-11.03 7.064-4.51 1.685-10.918 2.158-17.115 2.614-9.383.692-19.086 1.407-26.739 6.139-8.187 5.062-11.583 13.049-14.579 20.095-1.888 4.44-3.671 8.634-6.35 11.232-2.147 2.082-5.747 4.019-9.467 5.816a30.051 30.051 0 0 0 -13.725-3.464c-13.461 0-26.393 9.636-37.4 27.866l13.7 8.268c7.725-12.796 16.363-20.134 23.7-20.134 19.439 0 40 46.821 40 72a40.028 40.028 0 0 1 -.805 8h-13.541a28.407 28.407 0 0 0 2.917-12.571c0-14.519-11.126-42.286-28.571-42.286s-28.571 27.767-28.571 42.286a28.407 28.407 0 0 0 2.917 12.571h-13.541a40.028 40.028 0 0 1 -.8-8c0-9.745 3.375-23.892 8.806-36.922l-14.767-6.156c-6.292 15.078-10.044 31.178-10.044 43.078a56.291 56.291 0 0 0 .57 8h-8.57a8 8 0 0 0 -8 8v4.824a28.186 28.186 0 0 0 13.325 23.847l62.482 38.45 8.386-13.627-21.929-13.494h321.736v-16h-347.736l-14.553-8.956a12.077 12.077 0 0 1 -5.276-7.044h447.13a12.077 12.077 0 0 1 -5.276 7.044l-14.554 8.956h-43.735v16h17.735l-39.464 24.286a51.969 51.969 0 0 1 -27.253 7.714h-222.036a51.969 51.969 0 0 1 -27.253-7.714l-8.385 13.627a67.96 67.96 0 0 0 35.638 10.087h7.018v14a18.021 18.021 0 0 0 18 18h172a18.021 18.021 0 0 0 18-18v-14h7.018a67.96 67.96 0 0 0 35.638-10.087l80.019-49.243a28.183 28.183 0 0 0 13.325-23.846v-4.824a8 8 0 0 0 -8-8h-22.395c11.3-19.226 20.337-36.335 22.082-52.54 2.338-21.7-8.3-39.593-33.474-56.3-20.351-13.5-37.2-21.747-53.255-18.083a33.084 33.084 0 0 0 -12.215 5.629 28.721 28.721 0 0 0 -8.629-8.385c-7.653-4.733-17.356-5.448-26.739-6.139-2.953-.218-5.741-.424-8.417-.746l-1.916 15.884c3.045.368 6.152.6 9.156.818 7.463.55 15.18 1.119 19.5 3.791 2.167 1.34 3.888 3.456 5.692 7.021q-.894 1.347-1.751 2.787c-14.326 24.089-22.684 41.552-23.017 59.528-.279 15.007 4.967 29.215 14.428 46.733h-39.98c8.539-7.15 15.143-15.719 18.718-24.338 4.476-10.791 3.872-20.635-1.7-27.717-4.639-5.895-11.947-8.892-20.924-8.687a71.225 71.225 0 0 1 4.277-13.54c3.075-7.789 6.559-16.617 6.559-33.34s-3.484-25.55-6.559-33.339c-2.92-7.4-5.441-13.786-5.441-27.466s2.521-20.064 5.441-27.46c3.075-7.786 6.559-16.611 6.559-33.334 0-15.442-2.971-24.151-5.847-31.527l159.616 4.622q.116.003.231.003zm-188.292-79.875h2.877a11.677 11.677 0 0 1 9.845 5.143l-13.326.386c.248-1.729.453-3.563.604-5.529zm-99.676 55.533-72.032-2.085v-5.448h72.1c-.066 1.548-.1 3.143-.1 4.8q0 1.4.032 2.733zm16.818 205.3c.682.5 1.354.986 2.016 1.461 6.821 4.894 13.134 10.184 13.134 15.706s-6.313 10.812-13.134 15.706c-.662.475-1.334.964-2.016 1.461-5.965 4.342-12.133 8.833-18.85 8.833s-12.885-4.491-18.85-8.833c-.682-.5-1.354-.986-2.016-1.461-6.822-4.894-13.134-10.184-13.134-15.706s6.312-10.812 13.134-15.706c.662-.475 1.334-.964 2.016-1.461 5.965-4.342 12.133-8.833 18.85-8.833s12.885 4.491 18.85 8.833zm21.467-228.833h-30.317v-.062h-80v-5.448l113.1-3.275a79.438 79.438 0 0 0 -2.783 8.785zm8.29-24.951-19.617.568a12.017 12.017 0 0 1 11.177-7.617h9.5a59.326 59.326 0 0 1 -1.06 7.049zm-158.607 328.951a12.585 12.585 0 0 1 -12.571-12.571c0-10.732 8.827-26.286 12.571-26.286s12.571 15.554 12.571 26.286a12.585 12.585 0 0 1 -12.571 12.571zm256 110a2 2 0 0 1 -2 2h-172a2 2 0 0 1 -2-2v-14h176zm41.376-110q-1.342-2.332-2.576-4.548c4.148-6.24 8.653-9.85 13.721-11.006 6.227-1.42 15.906-.673 40.452 15.554zm4.017-98.083c4.532-7.621 9.479-11.952 15.124-13.239 6.259-1.427 16.01-.665 40.85 15.816 28.2 18.713 31.645 34.677 21.1 59.471a91.551 91.551 0 0 0 -13.652-12.383l-9.621 12.784c6.91 5.2 11.982 10.318 15.394 15.548q-2.917 5.349-6.36 11.231-2.854-2.122-6.007-4.214c-20.351-13.5-37.2-21.747-53.254-18.084a35.351 35.351 0 0 0 -18.118 10.905c-.929-2.112-1.753-4.153-2.473-6.14 2.452-4.633 5.369-9.779 9.025-15.926 4.436-7.461 9.259-11.762 14.744-13.148 7.439-1.88 17.528 1.206 31.753 9.714l8.212-13.731c-12.359-7.393-28.519-15.381-43.887-11.5-8.9 2.251-16.611 8.261-22.946 17.88 1.95-12.293 8.628-25.668 20.116-44.984zm-65.451 53.339c3.531 0 6.246.9 7.572 2.584 1.781 2.264 1.592 6.635-.5 11.692-2.762 6.658-8.493 13.74-15.724 19.43-15.351 12.08-30.43 13.077-34.067 8.454-1.782-2.264-1.593-6.635.5-11.693 2.761-6.658 8.493-13.739 15.725-19.43s15.462-9.594 22.582-10.712a25.3 25.3 0 0 1 3.912-.325zm156.058-227.616-156.985-4.546a71.373 71.373 0 0 1 -1-11.094h157.985z"/></g></svg>