<svg id="Capa_1" enable-background="new 0 0 512 512" height="512" viewBox="0 0 512 512" width="512" xmlns="http://www.w3.org/2000/svg"><g><path d="m443.897 138.764c-47.593 0-64.221 44.023-75.572 53.648-58.947-25.83-80.724-46.251-112.325-46.251-31.603 0-53.359 20.413-112.325 46.251-4.632-3.928-8.849-11.692-16.619-21.53-2.569-3.251-7.286-3.804-10.534-1.237-3.251 2.567-3.805 7.283-1.237 10.534 5.707 7.226 9.535 13.541 13.682 18.538-5.939 2.823-10.804 7.198-14.2 12.534-7.336-8.718-11.857-17.887-22.509-28.54-6.451-6.452-15.029-10.006-24.154-10.006-18.836 0-34.16 15.324-34.16 34.159 0 49.55 26.932 89.139 75.444 96.483.188 2.012-1.054 10.087 3.891 19.616-60.483-5.644-98.279-53.495-98.279-116.098 0-39.765 41.987-64.794 76.63-47.639 3.714 1.839 8.212.318 10.05-3.394s.318-8.211-3.394-10.05c-44.771-22.167-98.286 10.375-98.286 61.083 0 76.906 51.422 132.781 128.489 131.644 30.195 21.195 65.905 34.785 127.511 34.785 61.533 0 97.34-13.606 127.51-34.784 24.563.383 48.4-4.771 69.795-17.818 3.536-2.156 4.654-6.772 2.498-10.309-2.156-3.536-6.772-4.651-10.309-2.498-13.757 8.39-29.439 13.425-46.765 15.065 4.942-9.535 3.692-17.546 3.883-19.601 48.649-7.365 75.444-47.09 75.444-96.483 0-18.835-15.324-34.159-34.16-34.159-9.125 0-17.703 3.554-24.154 10.005-10.666 10.667-15.202 19.858-22.509 28.541-3.396-5.336-8.261-9.712-14.2-12.534 11.708-14.11 25.747-44.953 60.864-44.953 29.281 0 53.103 23.821 53.103 53.1 0 30.87-8.972 58.117-25.944 78.793-2.628 3.202-2.163 7.928 1.038 10.556 3.187 2.616 7.916 2.177 10.556-1.038 19.201-23.392 29.35-53.929 29.35-88.312 0-37.551-30.551-68.101-68.103-68.101zm-334.51 149.376c-40.387-7.223-60.445-40.896-60.445-81.275 0-16.962 20.672-25.585 32.707-13.547 11.642 11.64 16.123 23.178 27.822 34.15-.162 2.497-.048-.977-.084 60.672zm37.587 44.559c-4.435-2.715-9.043-5.773-14.698-9.952-4.94-3.649-7.889-9.488-7.889-15.617v-77.394c0-7.648 4.507-14.844 11.973-17.916 3.369-1.387 6.576-2.736 10.614-4.481zm203.052 8.145c-22.931 10.89-51.401 17.449-94.026 17.449s-71.096-6.56-94.026-17.449v-35.529c74.38 11.974 113.595 11.989 188.053 0v35.529zm0-50.723c-75.535 12.227-112.351 12.254-188.053 0v-46.951c31.984-13.029 72.393-22.978 94.026-22.978s62.042 9.949 94.026 22.978v46.951zm0-63.092c-32.894-12.707-71.647-21.837-94.026-21.837s-61.133 9.13-94.026 21.837v-26.411c49.261-22.829 69.237-39.457 94.026-39.457 24.754 0 44.858 16.671 94.026 39.457zm80.325-33.712c12.047-12.047 32.707-3.395 32.707 13.548 0 40.373-20.05 74.051-60.444 81.275-.036-61.665.078-58.181-.085-60.672 11.716-10.988 16.134-22.463 27.822-34.151zm-43.173 32.343c.776 4.887.298-4.16.435 81.471 0 6.129-2.949 11.968-7.889 15.617-4.769 3.524-9.63 6.849-14.698 9.952 0-13.082 0-105.236 0-125.36 3.416 1.478 6.947 2.972 10.614 4.481 5.991 2.465 10.227 7.671 11.538 13.839z"/></g></svg>